#N canvas 1 87 620 512 10;
#X obj 33 25 r accxyz;
#X obj 33 57 unpack f f f;
#X obj 31 144 vsl 15 128 0 24 0 0 empty empty empty 0 -9 0 10 -262144
-1 -1 0 1;
#X obj 74 148 vsl 15 128 0 24 0 0 empty empty empty 0 -9 0 10 -262144
-1 -1 0 1;
#X obj 111 147 vsl 15 128 0 24 0 0 empty empty empty 0 -9 0 10 -262144
-1 -1 0 1;
#X obj 31 84 int;
#X obj 68 87 int;
#X obj 103 87 int;
#X obj 28 113 + 12;
#X obj 66 113 + 12;
#X obj 108 114 + 12;
#X obj 297 19 inlet~;
#X obj 336 348 outlet~;
#X obj 74 296 / 24;
#X obj 122 297 / 24;
#X obj 127 329 * 127;
#X obj 31 296 / 24;
#X obj 354 20 inlet;
#X obj 462 30 r effect_onoff;
#X obj 28 372 s X;
#X obj 56 331 s Y;
#X obj 122 367 s Z;
#X obj 460 53 r choose_eff;
#X obj 341 119 demultiplex~ . . .;
#X obj 299 67 demultiplex~;
#X obj 484 189 eff2;
#X obj 406 192 eff1;
#X floatatom 485 107 5 0 0 0 - - -;
#X connect 0 0 1 0;
#X connect 1 0 5 0;
#X connect 1 1 6 0;
#X connect 1 2 7 0;
#X connect 2 0 16 0;
#X connect 3 0 13 0;
#X connect 4 0 14 0;
#X connect 5 0 8 0;
#X connect 6 0 9 0;
#X connect 7 0 10 0;
#X connect 8 0 2 0;
#X connect 9 0 3 0;
#X connect 10 0 4 0;
#X connect 11 0 24 0;
#X connect 13 0 20 0;
#X connect 14 0 15 0;
#X connect 15 0 21 0;
#X connect 16 0 19 0;
#X connect 17 0 24 0;
#X connect 18 0 24 0;
#X connect 22 0 23 0;
#X connect 22 0 27 0;
#X connect 23 0 12 0;
#X connect 23 1 26 0;
#X connect 23 2 25 0;
#X connect 24 0 12 0;
#X connect 24 1 23 0;
#X connect 25 0 12 0;
#X connect 26 0 12 0;
