#N canvas 77 126 1059 569 10;
#X obj -103 -93 r accxyz;
#X obj 239 -115 inlet~;
#X obj 352 358 outlet~;
#X obj 262 -63 inlet;
#X obj 238 228 demultiplex~;
#X obj -28 23 demux 0 1 2;
#X obj -48 -31 r choose_eff;
#X obj 447 -123 inlet~;
#X obj 446 129 demultiplex~;
#X obj 663 -115 inlet~;
#X obj 662 127 demultiplex~;
#X obj 516 200 eff1;
#N canvas 815 82 450 560 EffectType-2 0;
#X obj -95 21 inlet;
#X obj -6 291 / 24;
#X obj -95 51 unpack f f f;
#X obj -17 141 vsl 15 128 0 24 0 0 empty empty empty 0 -9 0 10 -262144
-1 -1 0 1;
#X obj -25 81 int;
#X obj -20 108 + 12;
#X obj 23 319 * 127;
#X obj 105 241 r SelEfLayer;
#X msg 138 331 \; Chunk-Size-Reset bang \; velocidade-reset bang \;
;
#X obj 108 294 t f b;
#X obj -117 429 demultiplex 0 1 2 3 4;
#X obj 71 366 int;
#X obj -98 458 s transposition;
#X obj 71 480 s transposition;
#X floatatom 94 405 5 0 0 0 - - -, f 5;
#X obj -123 250 line;
#X obj -123 218 pack 0 10;
#X obj -150 416 vsl 15 128 -48 48 0 0 empty empty empty 0 -9 0 10 -262144
-1 -1 0 1;
#X obj -124 149 / 4.7;
#X obj -100 357 * 24;
#X obj -86 491 s transposition;
#X obj -75 517 s transposition;
#X connect 0 0 2 0;
#X connect 1 0 6 0;
#X connect 2 1 18 0;
#X connect 2 2 4 0;
#X connect 3 0 1 0;
#X connect 4 0 5 0;
#X connect 5 0 3 0;
#X connect 7 0 9 0;
#X connect 9 0 11 0;
#X connect 10 1 12 0;
#X connect 10 2 20 0;
#X connect 10 3 21 0;
#X connect 10 4 13 0;
#X connect 11 0 10 1;
#X connect 11 0 14 0;
#X connect 15 0 19 0;
#X connect 16 0 15 0;
#X connect 18 0 16 0;
#X connect 19 0 10 0;
#X connect 19 0 17 0;
#X restore 4 74 pd EffectType-2;
#N canvas 139 184 1053 486 pitch-roll 0;
#X obj 125 57 unpack f f f;
#X obj 339 8 inlet;
#X obj 129 107 expr $f1 / $f2;
#X obj 129 139 atan;
#X obj 201 153 expr if ($f1 > 0 \, 3.14159 \, -3.14159);
#X obj 122 207 pack f f f;
#X obj 123 235 expr if ($f3 <= 0 \, $f1 + $f2 \, $f1);
#X obj 478 459 outlet;
#X obj 455 61 unpack f f f;
#X obj 459 111 expr $f1 / $f2;
#X obj 455 144 atan;
#X obj 482 183 expr if ($f1 > 0 \, 3.14159 \, -3.14159);
#X obj 452 211 pack f f f;
#X obj 453 239 expr if ($f3 <= 0 \, $f1 + $f2 \, $f1);
#X obj 455 267 * -1;
#X text 431 428 pitch;
#X obj 767 48 unpack f f f;
#X obj 706 84 expr sqrt(pow($f1 \, 2) + pow($f2 \, 2) + pow($f3 \,
2) );
#X text 545 433 total acceleration;
#X obj 844 120 s TotalAcc;
#X floatatom 721 113 5 0 0 0 - - -, f 5;
#X obj 475 431 pack f f f;
#X text 498 409 roll;
#X obj 410 326 t b f;
#X obj 565 331 t b f;
#X connect 0 1 2 0;
#X connect 0 1 4 0;
#X connect 0 2 2 1;
#X connect 0 2 5 2;
#X connect 1 0 0 0;
#X connect 1 0 8 0;
#X connect 1 0 16 0;
#X connect 2 0 3 0;
#X connect 3 0 5 0;
#X connect 4 0 5 1;
#X connect 5 0 6 0;
#X connect 6 0 21 0;
#X connect 8 0 9 0;
#X connect 8 0 11 0;
#X connect 8 2 9 1;
#X connect 8 2 12 2;
#X connect 9 0 10 0;
#X connect 10 0 12 0;
#X connect 11 0 12 1;
#X connect 12 0 13 0;
#X connect 13 0 14 0;
#X connect 14 0 23 0;
#X connect 16 0 17 0;
#X connect 16 1 17 1;
#X connect 16 2 17 2;
#X connect 17 0 19 0;
#X connect 17 0 20 0;
#X connect 17 0 24 0;
#X connect 21 0 7 0;
#X connect 23 0 21 0;
#X connect 23 1 21 1;
#X connect 24 0 21 0;
#X connect 24 1 21 2;
#X restore -92 -55 pd pitch-roll;
#N canvas 634 323 450 336 EffectType-1 0;
#X obj -64 34 unpack f f f;
#X obj -66 121 vsl 15 128 0 24 0 0 empty empty empty 0 -9 0 10 -262144
-1 -1 0 1;
#X obj -23 125 vsl 15 128 0 24 0 0 empty empty empty 0 -9 0 10 -262144
-1 -1 0 1;
#X obj 14 124 vsl 15 128 0 24 0 0 empty empty empty 0 -9 0 10 -262144
-1 -1 0 1;
#X obj -66 61 int;
#X obj -29 64 int;
#X obj 6 64 int;
#X obj -69 90 + 12;
#X obj -31 90 + 12;
#X obj 11 91 + 12;
#X obj -23 273 / 24;
#X obj 25 274 / 24;
#X obj 37 300 * 127;
#X obj -66 273 / 24;
#X obj -76 312 s X;
#X obj -41 308 s Y;
#X obj 3 309 s Z;
#X obj -67 6 inlet;
#X obj 108 120 + 3;
#X obj 106 150 / 6;
#X connect 0 0 4 0;
#X connect 0 1 5 0;
#X connect 0 2 6 0;
#X connect 1 0 13 0;
#X connect 2 0 10 0;
#X connect 3 0 11 0;
#X connect 4 0 7 0;
#X connect 5 0 8 0;
#X connect 6 0 9 0;
#X connect 7 0 1 0;
#X connect 8 0 2 0;
#X connect 9 0 3 0;
#X connect 10 0 15 0;
#X connect 11 0 12 0;
#X connect 12 0 16 0;
#X connect 13 0 14 0;
#X connect 17 0 0 0;
#X connect 18 0 19 0;
#X restore -103 270 pd EffectType-1;
#X obj -103 231 spigot;
#X obj -69 156 == 0;
#N canvas 46 118 599 566 EffectType-3 1;
#X obj 36 23 inlet;
#X obj 124 301 / 24;
#X obj 35 61 unpack f f f;
#X obj 113 151 vsl 15 128 0 24 0 0 empty empty empty 0 -9 0 10 -262144
-1 -1 0 1;
#X obj 105 91 int;
#X obj 110 118 + 12;
#X obj 153 329 * 127;
#X obj 249 205 r SelEfLayer;
#X msg 268 341 \; Chunk-Size-Reset bang \; velocidade-reset bang \;
;
#X obj 238 304 t f b;
#X obj 13 439 demultiplex 0 1 2 3 4;
#X obj 201 376 int;
#X obj 32 468 s transposition;
#X obj 201 490 s transposition;
#X floatatom 224 415 5 0 0 0 - - -, f 5;
#X obj 7 260 line;
#X obj 7 228 pack 0 10;
#X obj -23 397 vsl 15 128 -48 48 0 0 empty empty empty 0 -9 0 10 -262144
-1 -1 0 1;
#X obj 6 159 / 4.7;
#X obj 30 367 * 24;
#X obj -79 327 s velocidade-r;
#X obj -120 370 vsl 15 128 -200 200 0 0 empty empty empty 0 -9 0 10
-262144 -1 -1 0 1;
#X obj -76 296 line;
#X obj -76 264 pack 0 5;
#X obj -39 116 / 2;
#X floatatom -159 333 5 0 0 0 - - -, f 5;
#X obj 44 501 s transposition;
#X obj 55 527 s transposition;
#X obj -92 165 * 150;
#X obj -90 226 + 50;
#X floatatom -103 60 5 0 0 0 - - -, f 5;
#X floatatom 177 26 5 0 0 0 - - -, f 5;
#X connect 0 0 2 0;
#X connect 1 0 6 0;
#X connect 2 0 24 0;
#X connect 2 0 30 0;
#X connect 2 1 18 0;
#X connect 2 1 31 0;
#X connect 2 2 4 0;
#X connect 3 0 1 0;
#X connect 4 0 5 0;
#X connect 5 0 3 0;
#X connect 7 0 9 0;
#X connect 9 0 11 0;
#X connect 10 1 12 0;
#X connect 10 2 26 0;
#X connect 10 3 27 0;
#X connect 10 4 13 0;
#X connect 11 0 10 1;
#X connect 11 0 14 0;
#X connect 15 0 19 0;
#X connect 16 0 15 0;
#X connect 18 0 16 0;
#X connect 19 0 10 0;
#X connect 19 0 17 0;
#X connect 22 0 21 0;
#X connect 22 0 20 0;
#X connect 22 0 25 0;
#X connect 23 0 22 0;
#X connect 24 0 28 0;
#X connect 28 0 29 0;
#X connect 29 0 23 0;
#X restore 35 48 pd EffectType-3;
#X obj 3 201 r effect_onoff;
#X obj 264 76 spigot;
#X obj 326 122 t f f;
#X obj 349 149 sel 0;
#X msg 328 174 0;
#X obj 497 -123 inlet;
#X obj 497 45 spigot;
#X obj 524 10 t f f;
#X obj 551 46 sel 0;
#X msg 578 71 0;
#X obj 713 -114 inlet;
#X obj 717 46 spigot;
#X obj 756 -90 r choose_eff;
#X obj 742 -41 == 0;
#X obj 748 15 t f f;
#X obj 770 46 sel 0;
#X msg 785 74 0;
#X obj 744 -14 change;
#X obj 524 -41 == 0;
#X obj 524 -14 change;
#X obj 343 50 == 0;
#X obj 343 77 change;
#X floatatom -62 196 5 0 0 0 - - -, f 5;
#X obj 306 262 eff1;
#X obj 694 208 eff1;
#X obj -21 169 s velocidade-reset;
#X msg -13 141 100;
#X obj -18 116 change;
#X obj 742 -62 f;
#X obj 713 -90 t f b;
#X obj 539 -98 r choose_eff;
#X obj 524 -66 f;
#X obj 497 -99 t f b;
#X obj 342 -19 r choose_eff;
#X obj 331 13 f;
#X obj 262 -20 t f b;
#X obj 38 260 r choose_eff;
#X obj 38 290 sel 0;
#X msg 4 320 \; transpose-reset 0 \; velocidade-reset bang;
#X text 4 367 reset pitch and speed when no layer is chosen;
#X connect 0 0 13 0;
#X connect 0 0 15 0;
#X connect 1 0 4 0;
#X connect 3 0 53 0;
#X connect 4 0 2 0;
#X connect 4 1 41 0;
#X connect 5 1 12 0;
#X connect 5 2 17 0;
#X connect 6 0 5 1;
#X connect 6 0 16 0;
#X connect 6 0 45 0;
#X connect 7 0 8 0;
#X connect 8 0 2 0;
#X connect 8 1 11 0;
#X connect 9 0 10 0;
#X connect 10 0 2 0;
#X connect 10 1 42 0;
#X connect 11 0 2 0;
#X connect 13 0 5 0;
#X connect 15 0 14 0;
#X connect 16 0 15 1;
#X connect 16 0 40 0;
#X connect 19 0 4 0;
#X connect 20 0 19 1;
#X connect 20 1 21 0;
#X connect 21 1 22 0;
#X connect 22 0 4 0;
#X connect 23 0 50 0;
#X connect 24 0 8 0;
#X connect 25 0 24 1;
#X connect 25 1 26 0;
#X connect 26 1 27 0;
#X connect 27 0 8 0;
#X connect 28 0 47 0;
#X connect 29 0 10 0;
#X connect 30 0 46 1;
#X connect 31 0 35 0;
#X connect 32 0 29 1;
#X connect 32 1 33 0;
#X connect 33 1 34 0;
#X connect 34 0 10 0;
#X connect 35 0 32 0;
#X connect 36 0 37 0;
#X connect 37 0 25 0;
#X connect 38 0 39 0;
#X connect 39 0 20 0;
#X connect 41 0 2 0;
#X connect 42 0 2 0;
#X connect 44 0 43 0;
#X connect 45 0 44 0;
#X connect 46 0 31 0;
#X connect 47 0 29 0;
#X connect 47 1 46 0;
#X connect 48 0 49 1;
#X connect 49 0 36 0;
#X connect 50 0 24 0;
#X connect 50 1 49 0;
#X connect 51 0 52 1;
#X connect 52 0 38 0;
#X connect 53 0 19 0;
#X connect 53 1 52 0;
#X connect 54 0 55 0;
#X connect 55 0 56 0;
