#N canvas 1 82 450 419 10;
#X obj 210 -47 /~;
#X obj 173 -120 loadbang;
#X msg 173 -99 bang;
#X obj 173 -78 samplerate~;
#X obj 246 -149 + 24;
#X obj 106 90 +~;
#X obj 114 144 tanh~;
#X obj 159 111 hip~ 5;
#X text 178 81 length 0 127 \, feedback 0 1;
#X obj 159 144 delwrite~ delayunit-\$0 2000;
#X obj 210 -25 vd~ delayunit-\$0;
#X obj 54 -64 inlet~;
#X obj 95 262 outlet~;
#X obj 251 -4 r X;
#X obj 181 170 r Y;
#X obj 246 -172 r Z;
#X obj 253 -55 line~;
#X obj 252 -80 pack 0 5;
#X obj 256 -118 mtof;
#X obj 258 43 line~;
#X obj 257 18 pack 0 5;
#X obj 221 54 *~;
#X obj 174 220 line~;
#X obj 173 195 pack 0 5;
#X obj 111 220 *~;
#X msg 286 183 1;
#X floatatom 235 220 5 0 0 0 - - -;
#X connect 0 0 10 0;
#X connect 1 0 2 0;
#X connect 2 0 3 0;
#X connect 3 0 0 0;
#X connect 4 0 18 0;
#X connect 5 0 7 0;
#X connect 6 0 24 0;
#X connect 7 0 6 0;
#X connect 7 0 9 0;
#X connect 10 0 21 0;
#X connect 11 0 5 0;
#X connect 13 0 20 0;
#X connect 14 0 23 0;
#X connect 14 0 26 0;
#X connect 15 0 4 0;
#X connect 16 0 0 1;
#X connect 17 0 16 0;
#X connect 18 0 17 0;
#X connect 19 0 21 1;
#X connect 20 0 19 0;
#X connect 21 0 5 1;
#X connect 22 0 24 1;
#X connect 23 0 22 0;
#X connect 24 0 12 0;
#X connect 25 0 23 0;
