#N canvas 1 79 450 300 10;
#X obj 28 25 inlet~;
#X obj 36 276 outlet~;
#X obj 256 70 phasor~;
#X obj 240 111 cos~;
#X obj 288 102 +~ 0.5;
#X obj 288 130 wrap~;
#X obj 236 147 *~ 2;
#X obj 237 169 +~ 2;
#X obj 287 169 *~ 2;
#X obj 287 192 +~ 2;
#X obj 210 286 *~ 0.8;
#X obj 290 256 *~ 0.8;
#X obj 88 239 r~ output;
#X obj 379 282 s~ output;
#X floatatom 388 253 5 0 0 0 - - -;
#X floatatom 397 144 5 0 0 0 - - -;
#X floatatom 390 74 5 0 0 0 - - -;
#X obj 422 105 bng 15 250 50 0 empty empty empty 17 7 0 10 -262144
-1 -1;
#X obj 186 56 snapshot~;
#X floatatom 196 82 5 0 0 0 - - -;
#X msg 160 20 bang;
#X obj 47 66 delwrite~ phasI 100;
#X obj 46 89 delwrite~ phasII 100;
#X obj 210 259 vd~ phasI;
#X obj 290 224 vd~ phasII;
#X connect 0 0 1 0;
#X connect 0 0 18 0;
#X connect 0 0 21 0;
#X connect 0 0 22 0;
#X connect 2 0 3 0;
#X connect 2 0 4 0;
#X connect 3 0 6 0;
#X connect 4 0 5 0;
#X connect 5 0 8 0;
#X connect 6 0 7 0;
#X connect 7 0 23 0;
#X connect 8 0 9 0;
#X connect 9 0 24 0;
#X connect 10 0 21 0;
#X connect 11 0 22 0;
#X connect 12 0 1 0;
#X connect 14 0 11 1;
#X connect 14 0 10 1;
#X connect 15 0 6 1;
#X connect 15 0 7 1;
#X connect 15 0 8 1;
#X connect 15 0 9 1;
#X connect 16 0 2 0;
#X connect 17 0 16 0;
#X connect 17 0 15 0;
#X connect 17 0 14 0;
#X connect 18 0 19 0;
#X connect 20 0 18 0;
#X connect 23 0 10 0;
#X connect 23 0 13 0;
#X connect 24 0 11 0;
