#N canvas 1 100 639 545 10;
#X declare -lib mrpeach;
#X obj 19 92 tgl 130 1 loop1Go loop1Go-r empty 17 7 0 10 -4034 -1 -1
0 1;
#X obj 187 93 tgl 130 1 loop1_cut loop1_cut-r empty 17 7 0 10 -262144
-1 -1 0 1;
#N canvas 237 81 764 627 audio 0;
#X obj 219 466 dac~;
#X obj -38 -83 loadbang;
#X obj 370 -98 adc~;
#X obj 367 144 tabwrite~ loop1;
#X obj 568 -77 table loop1;
#X obj 233 253 tabplay~ loop1;
#X obj 189 -74 sel 0 1;
#X obj -40 71 sel 0 1;
#X obj 558 123 timer;
#X obj 397 246 t b b;
#X obj 453 283 delay 1;
#X obj 453 334 spigot;
#X obj 568 -51 table loop2;
#X obj 367 52 *~;
#X obj 189 100 delay 10;
#N canvas 79 79 696 613 loop2 0;
#X obj 153 -277 r loop2Go;
#X obj 12 267 tabwrite~ loop2;
#X obj 13 0 adc~;
#X obj 13 151 *~;
#X obj 258 108 tabplay~ loop2;
#X obj 231 11 r Loop2Sync;
#X obj 260 231 throw~ Loop2;
#X obj 231 58 t b b;
#X obj 398 245 s loop2;
#X obj 259 194 *~;
#X obj 274 157 r Loop2Cut;
#X msg 398 221 const 0;
#X obj 398 195 r loop2Reset;
#X obj 374 144 s loop2;
#X msg 403 114 resize \$1;
#X obj 403 84 * 22.05;
#X obj 431 144 s rec;
#X obj 364 30 r Smpl1Lenght;
#X obj 13 35 hip~ 50;
#X obj 12 62 lop~ 9000;
#X obj 29 121 vline~;
#X obj 537 92 t b b;
#X obj 552 137 delay 1;
#X obj 591 111 r Smpl1Lenght;
#X obj 537 62 r loopEngineGo;
#X obj 537 224 s Loop2Sync;
#X obj 454 24 samplerate~;
#X obj 455 49 / 1000;
#X obj 454 -2 loadbang;
#X obj 153 -253 sel 0 1;
#X obj 29 96 r loop2Som;
#X msg 172 -226 \; masterMute 0 \; loop2Som 1 300 \;;
#X obj 153 -176 t b b;
#X msg 153 -82 \; loop2Som 0 10 \; loop2 normalize -1 1 \; masterMute
1 \;;
#X msg 180 -151 \; loop2Som 0 10 \;;
#X obj 153 -115 delay 10;
#X floatatom 84 -225 5 0 0 0 - - -;
#X floatatom 314 195 5 0 0 0 - - -;
#X connect 0 0 29 0;
#X connect 0 0 36 0;
#X connect 2 0 18 0;
#X connect 3 0 1 0;
#X connect 4 0 1 0;
#X connect 4 0 9 0;
#X connect 5 0 7 0;
#X connect 7 0 1 0;
#X connect 7 1 4 0;
#X connect 9 0 6 0;
#X connect 10 0 9 1;
#X connect 10 0 37 0;
#X connect 11 0 8 0;
#X connect 12 0 11 0;
#X connect 14 0 13 0;
#X connect 14 0 16 0;
#X connect 15 0 14 0;
#X connect 17 0 15 0;
#X connect 18 0 19 0;
#X connect 19 0 3 0;
#X connect 20 0 3 1;
#X connect 21 0 25 0;
#X connect 21 1 22 0;
#X connect 22 0 21 0;
#X connect 23 0 22 1;
#X connect 24 0 21 0;
#X connect 26 0 27 0;
#X connect 27 0 15 1;
#X connect 28 0 26 0;
#X connect 29 0 32 0;
#X connect 29 1 31 0;
#X connect 30 0 20 0;
#X connect 32 0 35 0;
#X connect 32 1 34 0;
#X connect 35 0 33 0;
#X restore 477 -79 pd loop2;
#X obj 219 323 clip~ -1 1;
#X obj 217 201 catch~ Loop2;
#X obj 220 439 *~;
#X obj 369 -68 hip~ 50;
#N canvas 801 340 341 306 SAVE 0;
#X obj 86 208 catch~ torec;
#X obj 49 162 r Loop2Sync;
#X obj 172 261 soundfiler;
#X obj 49 257 tabwrite~ rec;
#X obj 172 157 pack f f;
#X obj 172 74 f;
#X obj 205 73 + 1;
#X msg 172 178 symbol \$1_\$2;
#X obj 172 203 makefilename %s.wav;
#X msg 172 235 write -wave \$1 rec;
#X obj 217 126 int;
#X obj 172 51 b;
#X obj 217 97 r Smpl1Lenght;
#X obj 172 23 r save;
#X connect 0 0 3 0;
#X connect 1 0 3 0;
#X connect 4 0 7 0;
#X connect 5 0 6 0;
#X connect 5 0 4 0;
#X connect 6 0 5 1;
#X connect 7 0 8 0;
#X connect 8 0 9 0;
#X connect 9 0 2 0;
#X connect 10 0 4 1;
#X connect 11 0 5 0;
#X connect 12 0 10 0;
#X connect 13 0 11 0;
#X restore 482 -22 pd SAVE;
#X obj 567 13 table rec;
#X obj 128 466 throw~ torec;
#X obj 558 147 s Smpl1Lenght;
#X obj 492 257 r Smpl1Lenght;
#X obj 558 62 r timerStart;
#X obj 368 -41 lop~ 9000;
#X obj 383 10 vline~;
#X obj 383 -18 r loop1Som;
#X msg 208 -40 \; loop1 const 0 \; timerStart bang \; loop1Som 1 300
\; loop1Set start \;;
#X obj 377 98 r loop1Set;
#X obj 585 96 r timerStop;
#X obj 189 41 t b b;
#X msg 216 64 \; loop1Som 0 10;
#X msg 189 127 \; timerStop bang \; loop1Set stop \; loop1 normalize
-1 1;
#X obj 233 229 r loop1ctrl;
#X obj -40 43 r loop1_cut;
#X obj 189 -100 r loop1Go;
#N canvas 1 87 450 383 MUTE 0;
#X obj 123 234 vline~;
#X obj 216 -51 r muteOff;
#X obj 216 -24 sel 0 1;
#X msg 215 2 1;
#X msg 242 1 0;
#X obj 119 90 spigot 1;
#X obj 122 266 outlet~;
#X obj 120 -32 r masterMute;
#X msg 126 197 \$1 10;
#X obj 119 118 t f f;
#X obj 215 44 t b f;
#X obj 127 170 f 1;
#X connect 0 0 6 0;
#X connect 1 0 2 0;
#X connect 2 0 3 0;
#X connect 2 1 4 0;
#X connect 3 0 10 0;
#X connect 4 0 10 0;
#X connect 5 0 9 0;
#X connect 7 0 5 0;
#X connect 8 0 0 0;
#X connect 9 0 11 0;
#X connect 9 1 11 1;
#X connect 10 0 11 0;
#X connect 10 1 5 1;
#X connect 11 0 8 0;
#X restore 250 401 pd MUTE;
#X obj 486 311 r loopEngineCtrl;
#X obj 397 216 r loopEngineGo;
#X msg -21 97 \; loopEngineCtrl 1 \; loopEngineGo bang;
#X msg -40 150 \; loopEngineCtrl 0 \; loop1ctrl stop;
#X obj 364 422 s loop1ctrl;
#X obj 364 393 delay 3;
#X obj 404 370 r latencia;
#X obj 452 407 s latenciaCheck;
#X msg -38 -52 \; pd dsp 1 \; loop1 resize 3.528e+06 \; masterMute
1;
#N canvas 257 81 727 545 efeitos 0;
#X obj 23 15 r accxyz;
#X obj 23 47 unpack f f f;
#X obj 21 134 vsl 15 128 0 24 0 0 empty empty empty 0 -9 0 10 -262144
-1 -1 5292 1;
#X obj 64 138 vsl 15 128 0 24 0 0 empty empty empty 0 -9 0 10 -262144
-1 -1 6350 1;
#X obj 101 137 vsl 15 128 0 24 0 0 empty empty empty 0 -9 0 10 -262144
-1 -1 11112 1;
#X obj 601 203 vd~ delayunit;
#X obj 638 71 r length;
#X obj 638 149 mtof~;
#X obj 601 181 /~;
#X obj 564 108 loadbang;
#X msg 564 129 bang;
#X obj 564 150 samplerate~;
#X obj 638 129 + 24;
#X obj 600 244 *~ 0;
#X obj 621 223 r feedback;
#X obj 21 74 int;
#X obj 58 77 int;
#X obj 93 77 int;
#X obj 18 103 + 12;
#X obj 56 103 + 12;
#X obj 98 104 + 12;
#X obj 386 -1 inlet~;
#X obj 429 450 outlet~;
#X obj 46 321 s volume;
#X obj 535 375 r volume;
#X obj 485 280 +~;
#X obj 490 410 *~ 0.5;
#X obj 64 286 / 24;
#X obj 112 287 / 24;
#X obj 117 319 * 127;
#X obj 112 357 s length;
#X obj 21 286 / 24;
#X obj 18 362 s feedback;
#X obj 493 334 tanh~;
#X obj 538 334 delwrite~ delayunit 2000;
#X obj 538 301 hip~ 5;
#X text 557 271 length 0 127 \, feedback 0 1;
#X obj 539 10 r effect_switch;
#X obj 418 51 demultiplex~;
#X connect 0 0 1 0;
#X connect 1 0 15 0;
#X connect 1 1 16 0;
#X connect 1 2 17 0;
#X connect 2 0 31 0;
#X connect 3 0 27 0;
#X connect 4 0 28 0;
#X connect 5 0 13 0;
#X connect 6 0 12 0;
#X connect 7 0 8 1;
#X connect 8 0 5 0;
#X connect 9 0 10 0;
#X connect 10 0 11 0;
#X connect 11 0 8 0;
#X connect 12 0 7 0;
#X connect 13 0 25 1;
#X connect 14 0 13 1;
#X connect 15 0 18 0;
#X connect 16 0 19 0;
#X connect 17 0 20 0;
#X connect 18 0 2 0;
#X connect 19 0 3 0;
#X connect 20 0 4 0;
#X connect 21 0 38 0;
#X connect 24 0 26 1;
#X connect 25 0 35 0;
#X connect 26 0 22 0;
#X connect 27 0 23 0;
#X connect 28 0 29 0;
#X connect 29 0 30 0;
#X connect 31 0 32 0;
#X connect 33 0 26 0;
#X connect 35 0 33 0;
#X connect 35 0 34 0;
#X connect 37 0 38 0;
#X connect 38 0 22 0;
#X connect 38 1 25 0;
#X restore 242 358 pd efeitos;
#N canvas 30 81 450 300 READ 0;
#X obj 71 169 soundfiler;
#X obj 72 99 openpanel;
#X obj 69 55 r read_recording;
#X obj 298 120 samplerate~;
#X obj 298 90 loadbang;
#X obj 179 221 /;
#X text 319 135 samples/segundo;
#X obj 295 162 / 1000;
#X obj 179 254 s Smpl1Length;
#X msg 70 133 read -resize \$1 loop1;
#X connect 0 0 5 0;
#X connect 1 0 9 0;
#X connect 2 0 1 0;
#X connect 3 0 7 0;
#X connect 4 0 3 0;
#X connect 5 0 8 0;
#X connect 7 0 5 1;
#X connect 9 0 0 0;
#X restore 484 8 pd READ;
#X obj 566 -21 table loop3;
#N canvas 285 54 709 545 loop3 0;
#X obj 23 10 adc~;
#X obj 23 161 *~;
#X obj 241 68 t b b;
#X obj 269 204 *~;
#X msg 408 231 const 0;
#X msg 413 124 resize \$1;
#X obj 413 94 * 22.05;
#X obj 374 40 r Smpl1Lenght;
#X obj 23 45 hip~ 50;
#X obj 22 72 lop~ 9000;
#X obj 39 131 vline~;
#X obj 547 102 t b b;
#X obj 562 147 delay 1;
#X obj 601 121 r Smpl1Lenght;
#X obj 547 72 r loopEngineGo;
#X obj 464 34 samplerate~;
#X obj 465 59 / 1000;
#X obj 464 8 loadbang;
#X obj 163 -243 sel 0 1;
#X obj 163 -166 t b b;
#X obj 163 -105 delay 10;
#X floatatom 94 -215 5 0 0 0 - - -;
#X floatatom 324 205 5 0 0 0 - - -;
#X obj 163 -267 r loop3Go;
#X obj 22 277 tabwrite~ loop3;
#X obj 268 118 tabplay~ loop3;
#X obj 408 255 s loop3;
#X obj 408 205 r loop3Reset;
#X obj 39 106 r loop3Som;
#X msg 163 -72 \; loop3Som 0 10 \; loop3 normalize -1 1 \; masterMute
1 \;;
#X obj 271 241 throw~ Loop3;
#X obj 284 167 r Loop3Cut;
#X obj 384 154 s loop3;
#X obj 547 234 s Loop3Sync;
#X obj 241 21 r Loop3Sync;
#X msg 182 -216 \; masterMute 0 \; loop3Som 1 300 \;;
#X msg 190 -141 \; loop3Som 0 10 \;;
#X connect 0 0 8 0;
#X connect 1 0 24 0;
#X connect 2 0 24 0;
#X connect 2 1 25 0;
#X connect 3 0 30 0;
#X connect 4 0 26 0;
#X connect 5 0 32 0;
#X connect 6 0 5 0;
#X connect 7 0 6 0;
#X connect 8 0 9 0;
#X connect 9 0 1 0;
#X connect 10 0 1 1;
#X connect 11 0 33 0;
#X connect 11 1 12 0;
#X connect 12 0 11 0;
#X connect 13 0 12 1;
#X connect 14 0 11 0;
#X connect 15 0 16 0;
#X connect 16 0 6 1;
#X connect 17 0 15 0;
#X connect 18 0 19 0;
#X connect 18 1 35 0;
#X connect 19 0 20 0;
#X connect 19 1 36 0;
#X connect 20 0 29 0;
#X connect 23 0 18 0;
#X connect 23 0 21 0;
#X connect 25 0 3 0;
#X connect 25 0 24 0;
#X connect 27 0 4 0;
#X connect 28 0 10 0;
#X connect 31 0 3 1;
#X connect 31 0 22 0;
#X connect 34 0 2 0;
#X restore 478 -52 pd loop3;
#X obj 108 210 catch~ Loop3;
#X obj 218 292 hip~ 30;
#X connect 1 0 47 0;
#X connect 2 0 19 0;
#X connect 5 0 53 0;
#X connect 6 0 32 0;
#X connect 6 1 29 0;
#X connect 7 0 42 0;
#X connect 7 1 41 0;
#X connect 8 0 23 0;
#X connect 9 0 44 0;
#X connect 9 1 10 0;
#X connect 10 0 11 0;
#X connect 11 0 9 0;
#X connect 13 0 3 0;
#X connect 14 0 34 0;
#X connect 16 0 48 0;
#X connect 16 0 22 0;
#X connect 17 0 53 0;
#X connect 18 0 0 0;
#X connect 18 0 0 1;
#X connect 19 0 26 0;
#X connect 24 0 10 1;
#X connect 25 0 8 0;
#X connect 26 0 13 0;
#X connect 27 0 13 1;
#X connect 28 0 27 0;
#X connect 30 0 3 0;
#X connect 31 0 8 1;
#X connect 32 0 14 0;
#X connect 32 1 33 0;
#X connect 35 0 5 0;
#X connect 36 0 7 0;
#X connect 37 0 6 0;
#X connect 38 0 18 1;
#X connect 39 0 11 1;
#X connect 40 0 9 0;
#X connect 44 0 43 0;
#X connect 45 0 44 1;
#X connect 45 0 46 0;
#X connect 48 0 22 0;
#X connect 48 0 18 0;
#X connect 52 0 53 0;
#X connect 53 0 16 0;
#X restore 533 440 pd audio;
#X obj 352 93 bng 130 250 50 0 loop1ctrl loop1ctrl-r bang 17 7 0 10
-262144 -1 -1;
#X text 534 350 Mick & X 2012;
#X obj 17 230 tgl 130 1 loop2Go loop2Go-r empty 17 7 0 10 -4034 -1
-1 0 1;
#X obj 187 231 tgl 130 1 Loop2Cut Loop2Cut-r empty 17 7 0 10 -262144
-1 -1 0 1;
#X obj 353 233 bng 130 250 50 0 loop2Reset loop2Reset-r reset2 17 7
0 10 -262144 -1 -1;
#X text 538 340 MICKLOOPER;
#X obj 496 30 wordbutton 80 30 save;
#X obj 510 110 tgl 100 1 muteOff muteOff-r empty 17 7 0 10 -262144
-1 -1 1 1;
#X obj 528 241 bng 60 250 50 0 read_recording empty read_recording
17 7 0 10 -262144 -1 -1;
#X obj 17 380 tgl 130 1 loop3Go loop3Go-r empty 17 7 0 10 -4034 -1
-1 0 1;
#X obj 187 381 tgl 130 1 Loop3Cut Loop3Cut-r empty 17 7 0 10 -262144
-1 -1 0 1;
#X obj 353 383 bng 130 250 50 0 loop3Reset loop3Reset-r reset3 17 7
0 10 -262144 -1 -1;
#X obj 521 398 receiver_osc;
