#N canvas 95 54 896 540 10;
#X declare -lib mrpeach;
#X obj 6 5 cnv 15 880 650 empty empty empty 20 12 0 14 -1 -66577 0
;
#X obj 240 179 tgl 150 1 loop1Go loop1Go-r empty 17 7 0 10 -260097
-1 -1 0 1;
#X obj 397 179 tgl 150 1 loop1Cut loop1Cut-r empty 17 7 0 10 -4034
-1 -1 0 1;
#X obj 554 179 bng 150 250 50 0 loop1-rwd loop1-rwd-r bang 17 7 0 10
-262144 -1 -1;
#X obj 240 333 tgl 150 1 loop2Go loop2Go-r empty 17 7 0 10 -260097
-1 -1 0 1;
#X obj 397 333 tgl 150 1 loop2Cut loop2Cut-r empty 17 7 0 10 -4034
-1 -1 0 1;
#X obj 553 333 bng 150 250 50 0 loop2Reset loop2Reset-r reset2 17 7
0 10 -262144 -1 -1;
#X obj 21 386 tgl 120 1 muteOff muteOff-r Mute_on_Rec 17 7 0 10 -262144
-1 -1 0 1;
#X obj 22 112 bng 120 250 50 0 read_recording empty read_recording
17 7 0 10 -261234 -1 -1;
#X obj 240 488 tgl 150 1 loop3Go loop3Go-r empty 17 7 0 10 -260097
-1 -1 0 1;
#X obj 397 488 tgl 150 1 loop3Cut loop3Cut-r empty 17 7 0 10 -4034
-1 -1 0 1;
#X obj 552 488 bng 150 250 50 0 loop3Reset loop3Reset-r reset3 17 7
0 10 -262144 -1 -1;
#X obj 34 11 nbx 5 20 -1e+37 1e+37 0 0 Chunk-Size Chunk-Size-r Chunk_Size
75 8 0 13 -262144 -1 -4034 25 256;
#X obj 33 42 nbx 5 20 -1e+37 1e+37 0 0 velocidade velocidade-r Velocity_%
75 8 0 13 -262144 -1 -4034 100 256;
#X obj 33 74 nbx 5 20 -1e+37 1e+37 0 0 transposition transposition-r
Transpose 75 8 0 13 -262144 -1 -4034 0 256;
#X obj 11 10 bng 20 250 50 0 Chunk-Size-Reset empty empty 17 7 0 10
-262144 -1 -1;
#X obj 11 74 bng 20 250 50 0 transpose-reset empty empty 17 7 0 10
-262144 -1 -1;
#X obj 11 42 bng 20 250 50 0 velocidade-reset empty empty 17 7 0 10
-262144 -1 -1;
#X obj 244 17 hradio 60 1 0 3 empty choose_eff choose_eff 0 -8 0 10
-203904 -260097 -4034 0;
#X obj 450 26 hradio 50 1 0 5 empty SelEfLayer Sel_Ef_Layer 0 -8 0
10 -261682 -45076 -4034 3;
#X obj 243 86 hsl 460 80 0 1 0 0 empty loop-Show empty -2 -8 0 10 -257985
-258113 -1 23785 1;
#X obj 21 246 tgl 120 1 ctrl_input ctrl_input-r choose_input 17 7 0
10 -262144 -1 -1 0 1;
#X obj 708 182 vradio 151 1 0 3 choose_grava choose_grava-r choose_rec_layer
5 10 0 10 -262144 -1 -1 0;
#X text 22 340 on - guit \, off - voz;
#N canvas 154 296 450 300 LIVE 0;
#X text 26 31 BEAT;
#X msg 16 61 \; ReadLoop read /home/mick/Desktop/PD_patches/sound/osc_looper/osc_looper-s/sembaBase.wav
loop1 \; choose_grava-r 1 \; Vol_loop1-r 0.3 \;;
#X restore 766 102 pd LIVE;
#X obj 736 26 cnv 15 120 20 empty empty looper*LabIO_11/13 5 12 0 10
-99865 -257985 0;
#X obj 20 516 cnv 15 120 130 empty empty empty 20 12 0 14 -233017 -66577
0;
#N canvas 174 59 780 540 audio 0;
#X obj -38 -93 loadbang;
#X obj 500 182 tabwrite~ loop1;
#X obj -30 376 table loop1;
#X obj 129 -74 sel 0 1;
#X obj -37 144 timer;
#X obj -30 402 table loop2;
#X obj 500 129 *~;
#N canvas 34 85 1196 682 loop2 0;
#X obj 113 -306 r loop2Go;
#X obj 7 125 *~;
#X obj 408 -223 s loop2;
#X msg 408 -247 const 0;
#X obj 408 -273 r loop2Reset;
#X obj 408 -43 s loop2;
#X msg 437 -73 resize \$1;
#X obj 437 -128 * 22.05;
#X obj 465 -43 s rec;
#X obj 398 -182 r Smpl1Lenght;
#X obj 488 -188 samplerate~;
#X obj 489 -163 / 1000;
#X obj 486 -213 loadbang;
#X obj 113 -282 sel 0 1;
#X obj 71 24 r loop2Som;
#X obj 113 -203 delay 10;
#X floatatom 44 -254 5 0 0 0 - - -;
#X obj 483 -100 s tamanho-Samp;
#X msg 113 -170 \; loop2Som 0 10 \; masterMute 1 \;;
#X obj 91 52 tgl 15 0 empty empty empty 17 7 0 10 -262144 -1 -1 0 1
;
#X msg 132 -255 \; masterMute 0 \; loop2Som 1 5 \;;
#X obj 448 326 outlet~;
#X obj 419 297 spigot~;
#X obj 478 262 tgl 15 0 empty empty empty 17 7 0 10 -262144 -1 -1 0
1;
#X obj 436 122 *~;
#X obj 569 69 r~ phase;
#X obj 569 93 -~ 0.5;
#X obj 569 117 *~ 0.5;
#X obj 569 140 cos~;
#X obj 435 151 +~;
#X obj 655 169 *~;
#X obj 670 96 -~ 0.5;
#X obj 670 120 *~ 0.5;
#X obj 670 143 cos~;
#X obj 670 72 r~ phase2;
#X obj 654 22 r~ syncread-2;
#X obj 437 6 r~ syncread-1;
#X obj 436 49 tabread4~ loop2;
#X obj 655 45 tabread4~ loop2;
#X obj 189 -42 r~ read-pt;
#X obj 188 28 *~ 44100;
#X obj 233 4 samplerate~;
#X obj 233 -17 loadbang;
#X obj 315 -20 bng 15 250 50 0 empty empty empty 17 7 0 10 -262144
-1 -1;
#N canvas 68 459 385 285 readindex 0;
#X obj 96 112 /;
#X msg 96 85 1;
#X obj 16 129 *~ 1;
#X obj 16 154 wrap~;
#X obj 96 61 t b f;
#X obj 16 182 *~ 1;
#X obj 16 13 inlet~;
#X obj 16 212 outlet~;
#X text 15 236 read pointer is one sample ahead of write pointer \,
but must be wrapped around loop length;
#X obj 96 37 int;
#X obj 96 13 r tamanho-Samp;
#X obj 16 69 +~ 2;
#X connect 0 0 2 1;
#X connect 1 0 0 0;
#X connect 2 0 3 0;
#X connect 3 0 5 0;
#X connect 4 0 1 0;
#X connect 4 1 0 1;
#X connect 5 0 7 0;
#X connect 6 0 11 0;
#X connect 9 0 4 0;
#X connect 9 0 5 1;
#X connect 10 0 9 0;
#X connect 11 0 2 0;
#X restore 189 60 pd readindex;
#X obj 190 128 edge~;
#X obj 190 88 expr~ $v1>1;
#X obj 102 323 tabwrite~ loop2;
#X obj 180 259 tabplay~ loop2;
#X obj 146 220 t b b;
#X obj 237 172 bng 15 250 50 0 empty empty empty 17 7 0 10 -262144
-1 -1;
#X obj 217 198 s 0XSample;
#X obj -6 -12 receive~ input_geral;
#X obj 476 228 r loop2Cut;
#X obj 397 259 *~;
#X obj 425 220 pack 0 5;
#X obj 426 244 line~;
#X obj 425 194 r Vol_loop2;
#X obj 71 102 sig~;
#X obj 70 127 lop~ 1;
#X obj 71 74 * 0.5;
#X obj -48 217 vu 15 120 empty empty -1 -8 0 10 -66577 -1 1 0;
#X obj -83 183 snapshot~;
#X obj -49 155 metro 100;
#X obj -42 134 tgl 15 0 empty empty empty 17 7 0 10 -262144 -1 -1 0
1;
#X connect 0 0 13 0;
#X connect 0 0 16 0;
#X connect 1 0 47 0;
#X connect 3 0 2 0;
#X connect 4 0 3 0;
#X connect 6 0 5 0;
#X connect 6 0 8 0;
#X connect 7 0 6 0;
#X connect 7 0 17 0;
#X connect 9 0 7 0;
#X connect 10 0 11 0;
#X connect 11 0 7 1;
#X connect 12 0 10 0;
#X connect 13 0 15 0;
#X connect 13 1 20 0;
#X connect 14 0 19 0;
#X connect 14 0 60 0;
#X connect 15 0 18 0;
#X connect 22 1 21 0;
#X connect 23 0 22 1;
#X connect 24 0 29 0;
#X connect 25 0 26 0;
#X connect 26 0 27 0;
#X connect 27 0 28 0;
#X connect 28 0 24 1;
#X connect 29 0 54 0;
#X connect 30 0 29 1;
#X connect 31 0 32 0;
#X connect 32 0 33 0;
#X connect 33 0 30 1;
#X connect 34 0 31 0;
#X connect 35 0 38 0;
#X connect 36 0 37 0;
#X connect 37 0 24 0;
#X connect 38 0 30 0;
#X connect 39 0 40 0;
#X connect 40 0 44 0;
#X connect 41 0 40 1;
#X connect 42 0 41 0;
#X connect 43 0 41 0;
#X connect 44 0 46 0;
#X connect 45 1 49 0;
#X connect 45 1 50 0;
#X connect 45 1 51 0;
#X connect 46 0 45 0;
#X connect 48 0 47 0;
#X connect 49 0 47 0;
#X connect 49 1 48 0;
#X connect 52 0 1 0;
#X connect 52 0 62 0;
#X connect 53 0 23 0;
#X connect 54 0 22 0;
#X connect 55 0 56 0;
#X connect 56 0 54 1;
#X connect 57 0 55 0;
#X connect 58 0 59 0;
#X connect 59 0 1 1;
#X connect 60 0 58 0;
#X connect 62 0 61 1;
#X connect 63 0 62 0;
#X connect 64 0 63 0;
#X restore 173 210 pd loop2;
#N canvas 797 342 341 306 SAVE 0;
#X obj 86 208 catch~ torec;
#X obj 49 162 r Loop2Sync;
#X obj 172 261 soundfiler;
#X obj 49 257 tabwrite~ rec;
#X obj 172 157 pack f f;
#X obj 172 74 f;
#X obj 205 73 + 1;
#X msg 172 178 symbol \$1_\$2;
#X obj 172 203 makefilename %s.wav;
#X msg 172 235 write -wave \$1 rec;
#X obj 217 126 int;
#X obj 172 51 b;
#X obj 217 97 r Smpl1Lenght;
#X obj 172 23 r save;
#X connect 0 0 3 0;
#X connect 1 0 3 0;
#X connect 4 0 7 0;
#X connect 5 0 6 0;
#X connect 5 0 4 0;
#X connect 6 0 5 1;
#X connect 7 0 8 0;
#X connect 8 0 9 0;
#X connect 9 0 2 0;
#X connect 10 0 4 1;
#X connect 11 0 5 0;
#X connect 12 0 10 0;
#X connect 13 0 11 0;
#X restore -32 484 pd SAVE;
#X obj -31 457 table rec;
#X obj 67 410 throw~ torec;
#X obj -37 249 s Smpl1Lenght;
#X obj -37 83 r timerStart;
#X obj 516 101 vline~;
#X obj 516 73 r loop1Som;
#X obj 510 156 r loop1Set;
#X obj -10 117 r timerStop;
#X obj 129 73 t b b;
#X obj 129 -100 r loop1Go;
#N canvas 1 103 450 300 READ 0;
#X obj 71 169 soundfiler;
#X obj -36 77 openpanel;
#X obj -39 33 r read_recording;
#X obj 298 120 samplerate~;
#X obj 298 90 loadbang;
#X obj 179 221 /;
#X text 319 135 samples/segundo;
#X obj 295 162 / 1000;
#X msg -38 111 read -resize \$1 loop1;
#X text 116 11 send bang to resize the table loop1!!!;
#X obj 179 254 s Smpl1Lenght;
#X obj 97 69 r ReadLoop;
#X floatatom 281 225 5 0 0 0 - - -;
#X connect 0 0 5 0;
#X connect 1 0 8 0;
#X connect 2 0 1 0;
#X connect 3 0 7 0;
#X connect 4 0 3 0;
#X connect 5 0 10 0;
#X connect 5 0 12 0;
#X connect 7 0 5 1;
#X connect 8 0 0 0;
#X connect 11 0 0 0;
#X restore -32 511 pd READ;
#X obj -31 429 table loop3;
#N canvas 33 54 958 540 loop3 0;
#X msg -3 -219 const 0;
#X msg 27 -23 resize \$1;
#X obj 27 -53 * 22.05;
#X obj -12 -107 r Smpl1Lenght;
#X obj 78 -113 samplerate~;
#X obj 79 -88 / 1000;
#X obj 78 -139 loadbang;
#X obj 163 -243 sel 0 1;
#X obj 163 -146 t b b;
#X obj 163 -85 delay 10;
#X floatatom 94 -215 5 0 0 0 - - -;
#X obj 163 -267 r loop3Go;
#X obj -3 -195 s loop3;
#X obj -3 -245 r loop3Reset;
#X obj -2 7 s loop3;
#X msg 190 -121 \; loop3Som 0 10 \;;
#X msg 163 -52 \; loop3Som 0 10 \; masterMute 1 \;;
#X msg 182 -216 \; masterMute 0 \; loop3Som 1 300 \;;
#X obj 35 267 *~;
#X obj 120 179 tgl 15 0 empty empty empty 17 7 0 10 -262144 -1 -1 0
1;
#X obj 413 138 outlet~;
#X obj 374 100 spigot~;
#X obj 449 108 tgl 15 0 empty empty empty 17 7 0 10 -262144 -1 -1 0
1;
#X obj 360 -94 *~;
#X obj 471 -214 r~ phase;
#X obj 471 -190 -~ 0.5;
#X obj 471 -166 *~ 0.5;
#X obj 471 -143 cos~;
#X obj 359 -65 +~;
#X obj 557 -114 *~;
#X obj 572 -187 -~ 0.5;
#X obj 572 -163 *~ 0.5;
#X obj 572 -140 cos~;
#X obj 572 -211 r~ phase2;
#X obj 556 -261 r~ syncread-2;
#X obj 361 -210 r~ syncread-1;
#X obj 96 145 r loop3Som;
#X obj 360 -167 tabread4~ loop3;
#X obj 557 -238 tabread4~ loop3;
#X obj 176 64 r~ read-pt;
#X obj 175 134 *~ 44100;
#X obj 220 110 samplerate~;
#X obj 220 89 loadbang;
#X obj 282 94 bng 15 250 50 0 empty empty empty 17 7 0 10 -262144 -1
-1;
#N canvas 389 460 385 285 readindex 0;
#X obj 96 112 /;
#X msg 96 85 1;
#X obj 16 129 *~ 1;
#X obj 16 154 wrap~;
#X obj 96 61 t b f;
#X obj 16 182 *~ 1;
#X obj 16 13 inlet~;
#X obj 16 212 outlet~;
#X text 15 236 read pointer is one sample ahead of write pointer \,
but must be wrapped around loop length;
#X obj 96 37 int;
#X obj 96 13 r tamanho-Samp;
#X obj 16 69 +~ 2;
#X obj 129 163 snapshot~;
#X floatatom 155 204 5 0 0 0 - - -;
#X connect 0 0 2 1;
#X connect 1 0 0 0;
#X connect 2 0 3 0;
#X connect 3 0 5 0;
#X connect 4 0 1 0;
#X connect 4 1 0 1;
#X connect 5 0 7 0;
#X connect 5 0 12 0;
#X connect 6 0 11 0;
#X connect 9 0 4 0;
#X connect 9 0 5 1;
#X connect 10 0 9 0;
#X connect 11 0 2 0;
#X connect 12 0 13 0;
#X restore 176 166 pd readindex;
#X obj 177 234 edge~;
#X obj 177 194 expr~ $v1>1;
#X obj 114 289 t b b;
#X obj 141 319 tabplay~ loop3;
#X obj 81 375 tabwrite~ loop3;
#X obj 36 118 receive~ input_geral;
#X obj 447 74 r loop3Cut;
#X obj 379 19 *~;
#X obj 418 -19 pack 0 5;
#X obj 419 5 line~;
#X obj 417 -45 r Vol_loop3;
#X obj 71 202 sig~;
#X obj 70 227 lop~ 1;
#X obj 71 174 * 0.5;
#X obj 291 208 vu 15 120 empty empty -1 -8 0 10 -66577 -1 1 0;
#X floatatom 276 337 5 0 0 0 - - -;
#X obj 284 182 snapshot~;
#X obj 306 149 metro 100;
#X obj 313 128 tgl 15 0 empty empty empty 17 7 0 10 -262144 -1 -1 0
1;
#X floatatom 127 208 5 0 0 0 - - -;
#X obj 184 283 tgl 15 0 empty empty empty 17 7 0 10 -262144 -1 -1 0
1;
#X obj 33 303 *~ 0.025;
#X connect 0 0 12 0;
#X connect 1 0 14 0;
#X connect 2 0 1 0;
#X connect 3 0 2 0;
#X connect 4 0 5 0;
#X connect 5 0 2 1;
#X connect 6 0 4 0;
#X connect 7 0 8 0;
#X connect 7 1 17 0;
#X connect 8 0 9 0;
#X connect 8 1 15 0;
#X connect 9 0 16 0;
#X connect 11 0 7 0;
#X connect 11 0 10 0;
#X connect 13 0 0 0;
#X connect 18 0 66 0;
#X connect 21 1 20 0;
#X connect 22 0 21 1;
#X connect 23 0 28 0;
#X connect 24 0 25 0;
#X connect 25 0 26 0;
#X connect 26 0 27 0;
#X connect 27 0 23 1;
#X connect 28 0 52 0;
#X connect 29 0 28 1;
#X connect 30 0 31 0;
#X connect 31 0 32 0;
#X connect 32 0 29 1;
#X connect 33 0 30 0;
#X connect 34 0 38 0;
#X connect 35 0 37 0;
#X connect 36 0 19 0;
#X connect 36 0 58 0;
#X connect 36 0 64 0;
#X connect 37 0 23 0;
#X connect 38 0 29 0;
#X connect 39 0 40 0;
#X connect 40 0 44 0;
#X connect 41 0 40 1;
#X connect 42 0 41 0;
#X connect 43 0 41 0;
#X connect 44 0 46 0;
#X connect 45 1 47 0;
#X connect 45 1 65 0;
#X connect 46 0 45 0;
#X connect 47 0 49 0;
#X connect 47 1 48 0;
#X connect 48 0 49 0;
#X connect 50 0 18 0;
#X connect 51 0 22 0;
#X connect 52 0 21 0;
#X connect 53 0 54 0;
#X connect 54 0 52 1;
#X connect 55 0 53 0;
#X connect 56 0 57 0;
#X connect 57 0 18 1;
#X connect 58 0 56 0;
#X connect 59 0 60 0;
#X connect 61 0 59 1;
#X connect 62 0 61 0;
#X connect 63 0 62 0;
#X connect 66 0 49 0;
#X restore 234 211 pd loop3;
#X obj 142 233 tgl 15 0 empty eff_lay1 empty 17 7 0 10 -262144 -1 -1
0 1;
#X obj 145 327 clip~ -1 1;
#X obj 146 299 hip~ 30;
#N canvas 33 58 958 540 Player-1 0;
#X obj 408 426 outlet~;
#X obj 371 398 spigot~;
#X obj 411 374 tgl 15 0 empty empty empty 17 7 0 10 -262144 -1 -1 0
1;
#X obj 137 70 r Smpl1Lenght;
#X floatatom 1046 -150 4 0 100 0 - - -;
#X obj 385 162 *~;
#X obj 537 83 r~ phase;
#X text 1162 -115 chunk size;
#X text 1159 -101 in seconds;
#X obj 848 127 t b f;
#X obj 537 107 -~ 0.5;
#X obj 537 131 *~ 0.5;
#X obj 537 154 cos~;
#X obj 836 187 phasor~;
#X obj 370 51 s~ read-pt;
#X obj 923 226 +~ 0.5;
#X obj 924 252 wrap~;
#X obj 924 277 s~ phase2;
#X obj 384 191 +~;
#X text 938 52 <-- transposition \, halftones/10;
#X obj 1046 -130 * 0.001;
#X obj 369 -31 phasor~;
#X obj 377 -235 s precession;
#X obj 961 126 t b f;
#X obj 961 101 r precession;
#X obj 625 188 *~;
#X obj 640 115 -~ 0.5;
#X obj 640 139 *~ 0.5;
#X obj 640 162 cos~;
#X obj 640 91 r~ phase2;
#X text 448 -283 <-- precession \, percent;
#X obj 140 -123 loadbang;
#X obj 409 -130 * 0.001;
#X text 1086 -150 <-- chunk size (msec);
#X obj 836 159 expr (pow(2 \, $f1/120)-$f3)/$f2;
#X text 508 -161 <-- loop length;
#X text 523 -138 (msec);
#X obj 371 27 *~;
#X obj 369 -55 /;
#X obj 409 -208 r Smpl1Lenght;
#X obj 369 -258 * 0.01;
#X obj 848 102 r chunk-size-s1;
#X obj 1046 -107 s chunk-size-s1;
#X obj 409 -158 nbx 9 14 -1e+37 1e+37 0 0 empty empty empty 0 -8 0
10 -262144 -1 -1 1502.33 256;
#X floatatom 165 203 5 0 0 0 - - -;
#X floatatom 166 258 5 0 0 0 - - -;
#X obj 166 230 expr 100/$f1;
#X obj 441 -183 bng 15 250 50 0 empty empty empty 17 7 0 10 -262144
-1 -1;
#X obj 836 79 * 10;
#X msg 465 -66 0;
#X obj 465 -90 r loop1-rwd;
#X obj 1046 -180 r Chunk-Size;
#X obj 836 52 r transposition;
#X obj 369 -282 r velocidade;
#X msg 140 -101 \; Chunk-Size-r 25 \; velocidade-r 100 \; transposition-r
0 \;;
#X obj 14 -219 r Chunk-Size-Reset;
#X msg 14 -195 \; Chunk-Size-r 25 \;;
#X msg 14 -135 \; velocidade-r 100 \;;
#X obj 14 -159 r velocidade-reset;
#X obj 836 233 s~ phase;
#X obj 133 174 s loop-Show;
#X floatatom 159 102 12 0 0 0 - - -;
#X obj 137 124 / 1000;
#X obj 133 153 /;
#X obj 409 -104 t b f f;
#X obj 17 -282 r transpose-reset;
#X msg 17 -260 \; transposition-r 0 \;;
#X obj 453 29 edge~;
#X obj 488 56 bng 15 250 50 0 empty empty empty 17 7 0 10 -262144 -1
-1;
#X obj 624 41 r~ syncread-2;
#X obj 386 101 r~ syncread-1;
#X obj 385 124 tabread4~ loop1;
#X obj 625 64 tabread4~ loop1;
#X obj 710 -127 +~;
#X obj 709 -175 samphold~;
#X obj 710 -151 *~;
#X obj 797 -174 r~ phase;
#X obj 745 -150 r~ phase;
#X obj 748 -127 r~ read-pt;
#X obj 710 -54 *~ 44100;
#X obj 874 -128 +~;
#X obj 873 -176 samphold~;
#X obj 874 -152 *~;
#X obj 912 -128 r~ read-pt;
#X obj 874 -57 *~ 44100;
#X obj 961 -175 r~ phase2;
#X obj 909 -151 r~ phase2;
#X obj 873 -201 r chunk-size-s1;
#X obj 709 -200 r chunk-size-s1;
#X obj 755 -78 samplerate~;
#X obj 919 -81 samplerate~;
#X obj 919 -104 loadbang;
#X obj 755 -99 loadbang;
#X obj 872 0 s~ syncread-2;
#X obj 708 -8 s~ syncread-1;
#X obj 709 -31 +~ 1;
#X obj 874 -29 +~ 1;
#X obj 850 -114 bng 15 250 50 0 empty empty empty 17 7 0 10 -262144
-1 -1;
#X obj 444 363 r loop1Cut;
#N canvas 541 172 450 300 changeVel 0;
#X obj 211 33 bng 15 250 50 0 empty empty empty 17 7 0 10 -262144 -1
-1;
#X obj 199 133 timer;
#X obj 209 57 tgl 15 0 empty empty empty 17 7 0 10 -262144 -1 -1 0
1;
#X floatatom 250 40 5 0 0 0 - - -;
#X obj 197 95 sel 0 1;
#X floatatom 104 158 12 0 0 0 - - -;
#X msg 153 97 bang;
#X obj 231 164 s TT;
#X text 310 26 double click the bang;
#X text 46 189 TT/Treal = OldVeloc/NovaVeloc;
#X text 51 220 NovaVel = (OldVeloc*Treal)/TT;
#X connect 0 0 2 0;
#X connect 1 0 5 0;
#X connect 1 0 7 0;
#X connect 2 0 3 0;
#X connect 2 0 4 0;
#X connect 4 0 1 0;
#X connect 4 1 1 1;
#X connect 6 0 1 0;
#X restore 1039 -215 pd changeVel;
#X obj 375 353 *~;
#X obj 414 315 pack 0 5;
#X obj 415 339 line~;
#X obj 414 209 r Vol_loop1;
#X floatatom 516 235 5 0 0 0 - - -;
#X obj 277 123 snapshot~;
#X obj 277 98 metro 40;
#X obj 277 58 loadbang;
#X obj 277 80 tgl 15 0 empty empty empty 17 7 0 10 -262144 -1 -1 1
1;
#X obj 414 280 * 8;
#X obj 413 247 - 0.08;
#X connect 1 1 0 0;
#X connect 2 0 1 1;
#X connect 3 0 61 0;
#X connect 3 0 62 0;
#X connect 4 0 20 0;
#X connect 5 0 18 0;
#X connect 6 0 10 0;
#X connect 9 0 34 0;
#X connect 9 1 34 1;
#X connect 10 0 11 0;
#X connect 11 0 12 0;
#X connect 12 0 5 1;
#X connect 13 0 15 0;
#X connect 13 0 59 0;
#X connect 15 0 16 0;
#X connect 16 0 17 0;
#X connect 18 0 100 0;
#X connect 20 0 42 0;
#X connect 21 0 37 0;
#X connect 21 0 67 0;
#X connect 23 0 34 0;
#X connect 23 1 34 2;
#X connect 24 0 23 0;
#X connect 25 0 18 1;
#X connect 26 0 27 0;
#X connect 27 0 28 0;
#X connect 28 0 25 1;
#X connect 29 0 26 0;
#X connect 31 0 54 0;
#X connect 32 0 64 0;
#X connect 34 0 13 0;
#X connect 37 0 14 0;
#X connect 37 0 105 0;
#X connect 38 0 21 0;
#X connect 39 0 43 0;
#X connect 40 0 22 0;
#X connect 40 0 38 0;
#X connect 41 0 9 0;
#X connect 43 0 32 0;
#X connect 44 0 46 0;
#X connect 46 0 45 0;
#X connect 47 0 43 0;
#X connect 48 0 34 0;
#X connect 49 0 21 1;
#X connect 50 0 49 0;
#X connect 51 0 4 0;
#X connect 52 0 48 0;
#X connect 53 0 40 0;
#X connect 55 0 56 0;
#X connect 58 0 57 0;
#X connect 62 0 63 1;
#X connect 63 0 60 0;
#X connect 64 0 38 0;
#X connect 64 1 38 1;
#X connect 64 2 37 1;
#X connect 65 0 66 0;
#X connect 67 1 68 0;
#X connect 69 0 72 0;
#X connect 70 0 71 0;
#X connect 71 0 5 0;
#X connect 72 0 25 0;
#X connect 73 0 79 0;
#X connect 74 0 75 0;
#X connect 75 0 73 0;
#X connect 76 0 74 1;
#X connect 77 0 75 1;
#X connect 78 0 73 1;
#X connect 79 0 95 0;
#X connect 80 0 84 0;
#X connect 81 0 82 0;
#X connect 82 0 80 0;
#X connect 83 0 80 1;
#X connect 84 0 96 0;
#X connect 85 0 81 1;
#X connect 86 0 82 1;
#X connect 87 0 81 0;
#X connect 88 0 74 0;
#X connect 89 0 79 1;
#X connect 90 0 84 1;
#X connect 91 0 90 0;
#X connect 92 0 89 0;
#X connect 95 0 94 0;
#X connect 96 0 93 0;
#X connect 97 0 89 0;
#X connect 97 0 90 0;
#X connect 98 0 2 0;
#X connect 100 0 1 0;
#X connect 101 0 102 0;
#X connect 102 0 100 1;
#X connect 103 0 104 0;
#X connect 103 0 110 0;
#X connect 105 0 63 0;
#X connect 106 0 105 0;
#X connect 107 0 108 0;
#X connect 108 0 106 0;
#X connect 109 0 101 0;
#X connect 110 0 109 0;
#X restore 93 209 pd Player-1;
#X obj 233 244 tgl 15 0 empty eff_lay3 empty 17 7 0 10 -262144 -1 -1
1 1;
#X obj 181 237 tgl 15 0 empty eff_lay2 empty 17 7 0 10 -262144 -1 -1
0 1;
#X obj 146 267 efeitos ----;
#X obj 252 442 *~;
#X obj 304 365 pack 0 5;
#X obj 304 386 line~;
#X obj 304 303 r TotalAcc;
#X obj 304 345 / 34;
#X obj 304 324 - 10;
#X floatatom 395 467 5 0 0 0 - - -;
#X floatatom 309 463 5 0 0 0 - - -;
#X floatatom 351 464 5 0 0 0 - - -;
#X msg 156 96 \; loop1Som 0 5;
#X obj 129 132 delay 5;
#X msg 129 159 \; timerStop bang \; loop1Set stop \;;
#X obj 539 339 bng 15 250 50 0 empty empty empty 0 -6 0 8 -262144 -1
-1;
#X floatatom 539 384 12 0 0 0 - - -;
#X obj 537 293 r tamanho-Samp;
#X floatatom 537 317 12 0 0 0 - - -;
#X obj 539 359 expr size("loop2");
#X obj 539 405 bng 15 250 50 0 empty empty empty 0 -6 0 8 -262144 -1
-1;
#X floatatom 539 450 12 0 0 0 - - -;
#X obj 540 425 expr size("loop1");
#X obj 404 -57 tgl 15 0 empty ctrl_input ctrl_input 17 7 0 10 -260097
-1 -1 0 1;
#X obj 500 13 send~ input_geral;
#X obj 500 44 receive~ input_geral;
#X obj -37 198 spigot;
#X obj -29 172 tgl 15 0 empty IN_set_SampleLentgh empty 17 7 0 10 -257985
-1 -1 1 1;
#X obj 499 -18 multiplex~;
#X text 420 -50 mic input ON;
#X text 466 468 sample rate 48000 Delay 40;
#X text 464 481 Block Size 512 Input channels 1;
#X obj 500 -53 r~ in0;
#X obj 548 -53 r~ in1;
#X obj 151 523 s~ out;
#X obj 253 487 rev2~ 98 90 15000 60;
#X obj 382 414 print;
#X obj 437 372 expr 1 - $f1;
#X obj 438 400 * 96;
#X msg 148 -40 \; transposition-r 0 \; timerStart bang \; loop1Som
1 5 \; loop1Set bang \; Chunk-Size-Reset bang \; velocidade-reset bang
\;;
#X text -9 170 input sets SampleLentgh;
#X msg -38 -62 \; pd dsp 1 \; loop1 resize 9e+07 \; masterMute 1 \;
choose_eff 0 \; MainVol-r 1 \; IN_set_SampleLentgh 1 \; Vol_loop1-r
0.5 \; Vol_loop2-r 0.5 \; Vol_loop3-r 0.5 \;;
#X connect 0 0 67 0;
#X connect 3 0 17 0;
#X connect 3 1 65 0;
#X connect 4 0 52 0;
#X connect 6 0 1 0;
#X connect 7 0 28 2;
#X connect 12 0 4 0;
#X connect 13 0 6 1;
#X connect 14 0 13 0;
#X connect 15 0 1 0;
#X connect 16 0 4 1;
#X connect 17 0 39 0;
#X connect 17 1 38 0;
#X connect 18 0 3 0;
#X connect 21 0 28 4;
#X connect 22 0 28 1;
#X connect 23 0 10 0;
#X connect 23 0 29 0;
#X connect 23 0 60 0;
#X connect 24 0 23 0;
#X connect 25 0 28 0;
#X connect 26 0 28 5;
#X connect 27 0 28 3;
#X connect 28 0 24 0;
#X connect 29 0 61 0;
#X connect 30 0 31 0;
#X connect 30 0 63 0;
#X connect 31 0 29 1;
#X connect 32 0 34 0;
#X connect 33 0 30 0;
#X connect 34 0 33 0;
#X connect 35 0 61 4;
#X connect 36 0 61 1;
#X connect 37 0 61 2;
#X connect 39 0 40 0;
#X connect 41 0 45 0;
#X connect 43 0 44 0;
#X connect 45 0 42 0;
#X connect 46 0 48 0;
#X connect 48 0 47 0;
#X connect 49 0 54 0;
#X connect 51 0 6 0;
#X connect 52 0 11 0;
#X connect 53 0 52 1;
#X connect 54 0 50 0;
#X connect 58 0 54 0;
#X connect 59 0 54 1;
#X connect 61 0 60 0;
#X connect 63 0 64 0;
#X connect 64 0 61 2;
#X restore 40 621 pd audio;
#X text 47 518 MICKLOOPER;
#X obj 33 597 receiver_osc;
#N canvas 666 117 325 351 android_layout 0;
#X obj 56 1 cnv 15 220 300 empty empty osc_looper_touchOSC_ctrl -10
-20 0 16 -191407 -258113 0;
#X obj 67 100 cnv 15 50 50 empty empty REC_lay1 0 12 0 10 -159808 -66577
0;
#X obj 136 100 cnv 15 50 50 empty empty PLAY_lay1 0 12 0 10 -159808
-66577 0;
#X obj 203 100 cnv 15 50 50 empty empty BANG_lay1 0 12 0 10 -159808
-86277 0;
#X obj 68 166 cnv 15 50 50 empty empty REC_lay2 0 12 0 10 -159808 -66577
0;
#X obj 137 166 cnv 15 50 50 empty empty PLAY_lay1 0 12 0 10 -159808
-66577 0;
#X obj 204 166 cnv 15 50 50 empty empty RESET_lay2 0 12 0 10 -203904
-66577 0;
#X obj 68 232 cnv 15 50 50 empty empty REC_lay2 0 12 0 10 -159808 -66577
0;
#X obj 137 232 cnv 15 50 50 empty empty PLAY_lay3 0 12 0 10 -159808
-66577 0;
#X obj 204 232 cnv 15 50 50 empty empty RESET_lay3 0 12 0 10 -203904
-66577 0;
#X obj 203 69 cnv 15 50 20 empty empty save 5 12 0 8 -4034 -66577 0
;
#X obj 67 42 cnv 15 20 20 empty empty effect_switch -8 12 0 8 -4032
-66577 0;
#X obj 68 16 cnv 15 20 20 empty empty position_ctrl -8 12 0 8 -257985
-66577 0;
#X obj 136 69 cnv 15 50 20 empty empty rec&listen 0 12 0 8 -4034 -66577
0;
#X obj 132 15 cnv 15 120 20 empty empty choose_effect 0 12 0 8 -257985
-66577 0;
#X obj 132 41 cnv 15 120 20 empty empty choose_layer_to_effect 0 12
0 8 -4032 -66577 0;
#X obj 67 71 cnv 15 50 20 empty empty choose_input -5 12 0 8 -4034
-66577 0;
#X restore 25 571 pd android_layout;
#X text 33 531 Mick & X 2013;
#N canvas 33 54 455 540 soundcheck 0;
#X obj 273 335 dac~;
#X obj 283 -14 r~ out;
#N canvas 12 321 450 383 MUTE 0;
#X obj 215 -46 r muteOff;
#X obj 119 90 spigot 1;
#X obj 120 -32 r masterMute;
#X obj 215 44 t b f;
#X obj 119 156 f 1;
#X obj 119 233 outlet;
#X obj 272 -5 tgl 15 0 empty empty empty 17 7 0 10 -262144 -1 -1 0
1;
#X obj 141 191 tgl 15 0 empty empty empty 17 7 0 10 -262144 -1 -1 1
1;
#X obj 141 13 tgl 15 0 empty empty empty 17 7 0 10 -262144 -1 -1 1
1;
#X connect 0 0 3 0;
#X connect 0 0 6 0;
#X connect 1 0 4 0;
#X connect 2 0 1 0;
#X connect 2 0 8 0;
#X connect 3 0 4 0;
#X connect 3 1 1 1;
#X connect 4 0 5 0;
#X connect 4 0 7 0;
#X restore 382 62 pd MUTE;
#X obj 326 22 pack 0 5;
#X obj 326 44 line~;
#X obj 354 261 vu 15 120 empty empty -1 -8 0 10 -66577 -1 1 0;
#X obj 352 193 env~;
#X obj 349 -6 r MainVol;
#X obj 9 386 cnv 15 320 200 empty empty empty 20 12 0 14 -203904 -66577
0;
#X obj 250 414 vsl 35 128 0.08 8 1 0 empty MainVol-r Vol 0 -9 0 10
-99865 -1 -1 6965 1;
#X obj 250 557 s MainVol;
#X obj 38 410 vsl 35 128 0.08 8 1 0 Vol_loop1 Vol_loop1-r Vol_loop1
0 -9 0 10 -99865 -1 -1 5054 1;
#X obj 104 410 vsl 35 128 0.08 8 1 0 Vol_loop2 Vol_loop2-r Vol_loop2
0 -9 0 10 -99865 -1 -1 5054 1;
#X obj 175 412 vsl 35 128 0 8 0 0 Vol_loop3 Vol_loop3-r Vol_loop3 0
-9 0 10 -99865 -1 -1 794 1;
#X obj 17 -13 cnv 15 220 320 empty empty empty 20 12 0 14 -204786 -66577
0;
#X obj 99 4 adc~;
#X obj 47 43 hip~ 40;
#X obj 48 69 lop~ 12000;
#X obj 129 44 hip~ 40;
#X obj 130 75 lop~ 12000;
#X obj 40 102 send~ in0;
#X obj 124 105 send~ in1;
#X obj 318 86 *~;
#X obj 269 111 *~;
#X obj 270 145 atan~;
#X obj 352 222 - 100;
#X connect 1 0 23 0;
#X connect 2 0 22 1;
#X connect 3 0 4 0;
#X connect 4 0 22 0;
#X connect 6 0 25 0;
#X connect 7 0 3 0;
#X connect 9 0 10 0;
#X connect 15 0 16 0;
#X connect 15 1 18 0;
#X connect 16 0 17 0;
#X connect 17 0 20 0;
#X connect 18 0 19 0;
#X connect 19 0 21 0;
#X connect 22 0 23 1;
#X connect 23 0 24 0;
#X connect 24 0 6 0;
#X connect 24 0 0 0;
#X connect 24 0 0 1;
#X connect 25 0 5 0;
#X restore 32 548 pd soundcheck;
