#N canvas 273 114 734 485 10;
#X obj 296 150 phasor~;
#X obj 95 313 hsl 60 15 0 1 0 0 empty empty volume -2 -8 0 14 -262144
-1 -1 500 1;
#X obj 280 191 cos~;
#X obj 328 182 +~ 0.5;
#X obj 328 210 wrap~;
#X obj 276 227 *~ 2;
#X obj 277 249 +~ 2;
#X obj 327 249 *~ 2;
#X obj 327 272 +~ 2;
#X obj 250 366 *~ 0.8;
#X obj 330 336 *~ 0.8;
#X obj 12 283 r~ output;
#X obj 377 430 s~ output;
#X floatatom 428 333 5 0 0 0 - - -;
#X floatatom 437 224 8 0 0 0 - - -;
#X floatatom 408 186 8 0 0 0 - - -;
#X obj 86 169 delwrite~ phas2 100;
#X obj 87 146 delwrite~ phas1 100;
#X obj 330 305 vd~ phas2;
#X obj 250 339 vd~ phas1;
#X obj 226 136 snapshot~;
#X floatatom 236 162 5 0 0 0 - - -;
#X obj -22 446 dac~;
#X floatatom 43 -22 5 0 0 0 - - -;
#X obj -24 388 *~;
#X obj 10 388 *~;
#X obj 40 389 *~;
#X obj 47 338 pow 3;
#X obj 408 19 vsl 15 128 0 1000 0 0 empty empty speed 0 -9 0 10 -204800
-1 -1 600 1;
#X obj 471 18 vsl 15 128 0 500 0 0 empty empty depth 0 -9 0 10 -232576
-1 -1 600 1;
#X obj 408 161 pow 0.5;
#X obj 471 181 pow 0.5;
#X obj 142 378 nbx 5 14 -1e+37 1e+37 0 0 empty empty empty 0 -8 0 10
-262144 -1 -1 0.000608631 256;
#X obj 433 296 hsl 128 15 -1 1 0 0 empty empty feedback -2 -8 0 10
-258113 -1 -1 7200 1;
#X obj 230 97 metro 200;
#X obj 230 63 tgl 15 0 empty empty empty 17 7 0 10 -262144 -1 -1 1
1;
#X obj -95 252 snapshot~;
#X floatatom -95 277 5 0 0 0 - - -;
#X obj -95 225 metro 200;
#X obj -95 198 tgl 15 0 empty empty empty 17 7 0 10 -262144 -1 -1 0
1;
#X obj -24 43 multiplex~;
#X obj -7 -9 adc~;
#X obj 43 2 osc~;
#X obj -110 42 hradio 15 1 0 2 empty empty select_input 0 -8 0 10 -204786
-1 -1 1;
#X connect 0 0 2 0;
#X connect 0 0 3 0;
#X connect 1 0 27 0;
#X connect 2 0 5 0;
#X connect 3 0 4 0;
#X connect 4 0 7 0;
#X connect 5 0 6 0;
#X connect 6 0 19 0;
#X connect 7 0 8 0;
#X connect 8 0 18 0;
#X connect 9 0 17 0;
#X connect 10 0 16 0;
#X connect 11 0 25 0;
#X connect 11 0 26 0;
#X connect 13 0 10 1;
#X connect 13 0 9 1;
#X connect 14 0 5 1;
#X connect 14 0 6 1;
#X connect 14 0 7 1;
#X connect 14 0 8 1;
#X connect 15 0 0 0;
#X connect 18 0 10 0;
#X connect 18 0 12 0;
#X connect 19 0 9 0;
#X connect 19 0 12 0;
#X connect 20 0 21 0;
#X connect 23 0 42 0;
#X connect 24 0 22 0;
#X connect 24 0 22 1;
#X connect 25 0 22 0;
#X connect 26 0 22 1;
#X connect 27 0 26 1;
#X connect 27 0 25 1;
#X connect 27 0 24 1;
#X connect 27 0 32 0;
#X connect 28 0 30 0;
#X connect 29 0 31 0;
#X connect 30 0 15 0;
#X connect 31 0 14 0;
#X connect 33 0 13 0;
#X connect 34 0 20 0;
#X connect 35 0 34 0;
#X connect 36 0 37 0;
#X connect 38 0 36 0;
#X connect 39 0 38 0;
#X connect 40 0 16 0;
#X connect 40 0 17 0;
#X connect 40 0 20 0;
#X connect 40 0 24 0;
#X connect 41 0 40 0;
#X connect 41 1 40 0;
#X connect 42 0 40 1;
#X connect 43 0 40 0;
