#N canvas 889 101 451 528 10;
#X text 99 62 serial port #;
#X msg 168 92 close;
#X text 262 240 <-- argument sets port #;
#X obj 201 301 route digital;
#X msg 240 164 pinMode 6 input \, pinMode 7 input;
#X obj 240 47 t b b;
#X obj 240 17 inlet;
#X obj 290 14 bng 15 250 50 0 empty empty bang_to_start 17 7 0 10 -262144
-1 -1;
#X obj 242 110 delay 3000;
#X obj 201 242 arduino 4;
#X obj 252 270 print;
#X obj 201 329 route 6 7;
#X obj 259 426 outlet;
#X obj 184 427 outlet;
#X obj 132 421 send BA;
#X obj 312 426 send BB;
#X obj 239 392 change;
#X obj 142 381 change;
#X obj 133 357 speedlim 8;
#X obj 228 358 speedlim 8;
#X msg 284 199 devices;
#X obj 53 359 tgl 50 0 empty empty empty 17 7 0 10 -260097 -1 -1 0
1;
#X obj 347 357 tgl 50 0 empty empty empty 17 7 0 10 -4034 -1 -1 0 1
;
#X obj 659 203 r choose_grava;
#X obj 596 203 r BA;
#X obj 530 355 s loop1Go-r;
#X obj 709 437 s loop2Go-r;
#X obj 596 227 demux 0 1 2;
#X obj 505 77 demux 0 1 2;
#X obj 568 53 r choose_grava;
#X obj 502 30 r BB;
#X obj 694 263 t f f;
#X obj 634 268 t f f;
#X obj 536 271 t f f;
#X floatatom 601 74 5 0 0 0 - - -;
#X obj 494 295 sel 0;
#X msg 479 316 1;
#X obj 639 384 sel 0;
#X msg 634 408 1;
#X obj 745 337 sel 0;
#X msg 740 361 1;
#X obj 503 55 b;
#X obj 446 352 s loop1Cut-r;
#X obj 626 435 s loop2Cut-r;
#X obj 740 388 s loop3Cut-r;
#X obj 506 160 s loop1Cut-r;
#X obj 546 134 s loop2Cut-r;
#X obj 578 107 s loop3Cut-r;
#X obj 809 350 s loop3Go-r;
#X text 340 198 to check which port #;
#X obj 31 453 tgl 15 0 empty empty empty 17 7 0 10 -262144 -1 -1 0
1;
#X obj 71 453 tgl 15 0 empty empty empty 17 7 0 10 -262144 -1 -1 0
1;
#X obj 13 484 send BA;
#X obj 71 483 send BB;
#X text 27 209 O QUE MANDA loop1Go etc ligado ao send BA e BB?;
#X msg 108 91 open 32;
#X text 297 271 ENVIAR PARA O |OPEN \$1(;
#X connect 1 0 9 0;
#X connect 3 0 11 0;
#X connect 4 0 9 0;
#X connect 5 0 8 0;
#X connect 5 1 55 0;
#X connect 6 0 5 0;
#X connect 7 0 5 0;
#X connect 8 0 4 0;
#X connect 9 0 3 0;
#X connect 9 1 10 0;
#X connect 11 0 18 0;
#X connect 11 1 19 0;
#X connect 16 0 12 0;
#X connect 16 0 15 0;
#X connect 16 0 22 0;
#X connect 17 0 13 0;
#X connect 17 0 14 0;
#X connect 17 0 21 0;
#X connect 18 0 17 0;
#X connect 19 0 16 0;
#X connect 20 0 9 0;
#X connect 23 0 27 1;
#X connect 24 0 27 0;
#X connect 27 0 33 0;
#X connect 27 1 32 0;
#X connect 27 2 31 0;
#X connect 28 0 45 0;
#X connect 28 1 46 0;
#X connect 28 2 47 0;
#X connect 29 0 28 1;
#X connect 29 0 34 0;
#X connect 30 0 41 0;
#X connect 31 0 39 0;
#X connect 31 1 48 0;
#X connect 32 0 37 0;
#X connect 32 1 26 0;
#X connect 33 0 35 0;
#X connect 33 1 25 0;
#X connect 35 0 36 0;
#X connect 36 0 42 0;
#X connect 37 0 38 0;
#X connect 38 0 43 0;
#X connect 39 0 40 0;
#X connect 40 0 44 0;
#X connect 41 0 28 0;
#X connect 50 0 52 0;
#X connect 51 0 53 0;
#X connect 55 0 9 0;
