#N canvas 47 79 572 406 10;
#X declare -lib mrpeach -lib iemlib;
#X obj 21 17 bng 120 250 50 0 L1 shootL1 empty 17 7 0 10 -257985 -1
-1;
#X obj 144 17 bng 120 250 50 0 L2 shootL2 empty 17 7 0 10 -257985 -1
-1;
#X obj 267 17 bng 120 250 50 0 L3 shootL3 empty 17 7 0 10 -257985 -1
-1;
#X obj 21 140 bng 120 250 50 0 L4 shootL4 empty 17 7 0 10 -257985 -1
-1;
#X obj 144 140 bng 120 250 50 0 L5 shootL5 empty 17 7 0 10 -257985
-1 -1;
#X obj 267 140 bng 120 250 50 0 L6 shootL6 empty 17 7 0 10 -257985
-1 -1;
#X obj 21 263 bng 120 250 50 0 L7 shootL7 empty 17 7 0 10 -257985 -1
-1;
#X obj 144 263 bng 120 250 50 0 L8 shootL8 empty 17 7 0 10 -257985
-1 -1;
#X obj 267 263 bng 120 250 50 0 L9 shootL9 empty 17 7 0 10 -257985
-1 -1;
#N canvas 440 93 727 630 play_samples 0;
#X obj 70 33 r L1;
#X obj 304 613 dac~;
#X obj 286 28 r L2;
#X obj 525 35 r L3;
#X obj 557 226 r L6;
#X obj 560 381 r L9;
#X obj 302 388 r L8;
#X obj 296 219 r L5;
#X obj 81 217 r L4;
#X obj 81 385 r L7;
#X obj 98 85 symbol s1;
#X msg 100 110 set \$1;
#X obj 314 585 tabplay~ \$1;
#X obj 70 57 t b b;
#X msg 60 83 bang;
#X msg 314 111 set \$1;
#X obj 284 58 t b b;
#X msg 274 84 bang;
#X msg 554 119 set \$1;
#X obj 524 66 t b b;
#X msg 514 92 bang;
#X msg 586 310 set \$1;
#X obj 556 257 t b b;
#X msg 546 283 bang;
#X msg 584 471 set \$1;
#X obj 554 418 t b b;
#X msg 544 444 bang;
#X msg 323 304 set \$1;
#X obj 293 251 t b b;
#X msg 283 277 bang;
#X msg 111 300 set \$1;
#X obj 81 247 t b b;
#X msg 71 273 bang;
#X msg 109 481 set \$1;
#X obj 79 428 t b b;
#X msg 69 454 bang;
#X msg 331 483 set \$1;
#X obj 299 431 t b b;
#X msg 283 450 bang;
#X obj 312 86 symbol s2;
#X obj 552 94 symbol s3;
#X obj 584 285 symbol s6;
#X obj 582 446 symbol s9;
#X obj 327 459 symbol s8;
#X obj 321 279 symbol s5;
#X obj 109 275 symbol s4;
#X obj 107 456 symbol s7;
#X connect 0 0 13 0;
#X connect 2 0 16 0;
#X connect 3 0 19 0;
#X connect 4 0 22 0;
#X connect 5 0 25 0;
#X connect 6 0 37 0;
#X connect 7 0 28 0;
#X connect 8 0 31 0;
#X connect 9 0 34 0;
#X connect 10 0 11 0;
#X connect 11 0 12 0;
#X connect 12 0 1 0;
#X connect 12 0 1 1;
#X connect 13 0 14 0;
#X connect 13 1 10 0;
#X connect 14 0 12 0;
#X connect 15 0 12 0;
#X connect 16 0 17 0;
#X connect 16 1 39 0;
#X connect 17 0 12 0;
#X connect 18 0 12 0;
#X connect 19 0 20 0;
#X connect 19 1 40 0;
#X connect 20 0 12 0;
#X connect 21 0 12 0;
#X connect 22 0 23 0;
#X connect 22 1 41 0;
#X connect 23 0 12 0;
#X connect 24 0 12 0;
#X connect 25 0 26 0;
#X connect 25 1 42 0;
#X connect 26 0 12 0;
#X connect 27 0 12 0;
#X connect 28 0 29 0;
#X connect 28 1 44 0;
#X connect 29 0 12 0;
#X connect 30 0 12 0;
#X connect 31 0 32 0;
#X connect 31 1 45 0;
#X connect 32 0 12 0;
#X connect 33 0 12 0;
#X connect 34 0 35 0;
#X connect 34 1 46 0;
#X connect 35 0 12 0;
#X connect 36 0 12 0;
#X connect 37 0 38 0;
#X connect 37 1 43 0;
#X connect 38 0 12 0;
#X connect 39 0 15 0;
#X connect 40 0 18 0;
#X connect 41 0 21 0;
#X connect 42 0 24 0;
#X connect 43 0 36 0;
#X connect 44 0 27 0;
#X connect 45 0 30 0;
#X connect 46 0 33 0;
#X restore 432 364 pd play_samples;
#N canvas 68 97 842 647 samples 0;
#X obj 518 477 table s1;
#X obj 47 67 openpanel;
#X msg 47 42 symbol /home/mick/samples;
#X obj 47 607 soundfiler;
#X msg 47 90 read -resize \$1 s1;
#X obj 582 478 table s2;
#X obj 645 476 table s3;
#X obj 518 501 table s4;
#X obj 583 502 table s5;
#X obj 644 502 table s6;
#X obj 519 526 table s7;
#X obj 584 527 table s8;
#X obj 645 527 table s9;
#X obj 58 170 openpanel;
#X msg 58 145 symbol /home/mick/samples;
#X obj 269 69 openpanel;
#X msg 269 44 symbol /home/mick/samples;
#X obj 280 172 openpanel;
#X msg 280 147 symbol /home/mick/samples;
#X obj 490 73 openpanel;
#X msg 490 48 symbol /home/mick/samples;
#X obj 501 176 openpanel;
#X msg 501 151 symbol /home/mick/samples;
#X obj 68 290 openpanel;
#X msg 68 265 symbol /home/mick/samples;
#X obj 290 292 openpanel;
#X msg 290 267 symbol /home/mick/samples;
#X obj 511 296 openpanel;
#X msg 511 271 symbol /home/mick/samples;
#X msg 270 92 read -resize \$1 s2;
#X msg 490 96 read -resize \$1 s3;
#X msg 501 199 read -resize \$1 s6;
#X msg 280 195 read -resize \$1 s5;
#X msg 58 193 read -resize \$1 s4;
#X msg 68 313 read -resize \$1 s7;
#X msg 290 315 read -resize \$1 s8;
#X msg 511 319 read -resize \$1 s9;
#X connect 1 0 4 0;
#X connect 2 0 1 0;
#X connect 4 0 3 0;
#X connect 13 0 33 0;
#X connect 14 0 13 0;
#X connect 15 0 29 0;
#X connect 16 0 15 0;
#X connect 17 0 32 0;
#X connect 18 0 17 0;
#X connect 19 0 30 0;
#X connect 20 0 19 0;
#X connect 21 0 31 0;
#X connect 22 0 21 0;
#X connect 23 0 34 0;
#X connect 24 0 23 0;
#X connect 25 0 35 0;
#X connect 26 0 25 0;
#X connect 27 0 36 0;
#X connect 28 0 27 0;
#X connect 29 0 3 0;
#X connect 30 0 3 0;
#X connect 31 0 3 0;
#X connect 32 0 3 0;
#X connect 33 0 3 0;
#X connect 34 0 3 0;
#X connect 35 0 3 0;
#X connect 36 0 3 0;
#X restore 451 335 pd samples;
#N canvas 791 215 450 415 receiveOSC 0;
#X obj 45 63 unpackOSC;
#X obj 45 34 udpreceive 8000;
#X obj 11 281 s shootL1;
#X obj 71 281 s shootL2;
#X obj 132 281 s shootL3;
#X obj 151 309 s shootL4;
#X obj 211 309 s shootL5;
#X obj 272 309 s shootL6;
#X obj 241 336 s shootL7;
#X obj 301 336 s shootL8;
#X obj 362 336 s shootL9;
#X obj 54 122 route /1/push1 /1/push4 /1/push7 /1/push2 /1/push5 /1/push8
/1/push3 /1/push6 /1/push9;
#X obj 56 167 sel 1;
#X obj 98 168 sel 1;
#X obj 140 168 sel 1;
#X obj 182 169 sel 1;
#X obj 221 170 sel 1;
#X obj 263 171 sel 1;
#X obj 305 171 sel 1;
#X obj 347 172 sel 1;
#X obj 387 173 sel 1;
#X connect 0 0 11 0;
#X connect 1 0 0 0;
#X connect 11 0 12 0;
#X connect 11 1 13 0;
#X connect 11 2 14 0;
#X connect 11 3 15 0;
#X connect 11 4 16 0;
#X connect 11 5 17 0;
#X connect 11 6 18 0;
#X connect 11 7 19 0;
#X connect 11 8 20 0;
#X connect 12 0 2 0;
#X connect 13 0 3 0;
#X connect 14 0 4 0;
#X connect 15 0 5 0;
#X connect 16 0 6 0;
#X connect 17 0 7 0;
#X connect 18 0 8 0;
#X connect 19 0 9 0;
#X connect 20 0 10 0;
#X restore 444 308 pd receiveOSC;
#X obj 408 31 import mrpeach iemlib;
