#N canvas 468 79 746 637 10;
#X obj 58 115 soundfiler;
#X msg 371 96 bang;
#X msg 335 96 stop;
#X obj 337 174 dac~;
#X obj 58 60 openpanel;
#X obj 58 34 bng 15 250 50 0 empty empty empty 17 7 0 10 -262144 -1
-1;
#X msg 318 545 const 0;
#X obj 352 39 tgl 15 0 empty empty empty 17 7 0 10 -262144 -1 -1 0
1;
#X obj 352 65 sel 0 1;
#X obj 392 170 bng 15 250 50 0 empty empty sync 17 7 0 10 -262144 -1
-1;
#X obj 627 23 table LOOP1;
#X obj 346 133 tabplay~ LOOP1;
#X msg 58 86 read -resize \$1 LOOP1;
#X floatatom 58 141 10 0 0 0 loop_lentgh - -;
#X obj 510 527 adc~;
#X obj 519 602 tabwrite~ LOOP2;
#X obj 626 51 table LOOP2;
#X obj 54 459 samplerate~;
#X obj 39 486 f;
#X floatatom 39 519 10 0 0 0 - - -;
#X obj 54 432 loadbang;
#X msg 15 431 bang;
#X obj 571 170 timer;
#X floatatom 590 202 10 0 0 0 - - -;
#X msg 614 145 bang;
#X obj 57 221 f;
#X obj 42 200 bng 15 250 50 0 empty empty empty 17 7 0 10 -262144 -1
-1;
#X msg 57 274 \; LOOP2 resize \$1;
#X floatatom 57 245 10 0 0 0 - - -;
#X obj 178 550 expr size("LOOP2");
#X floatatom 178 577 10 0 0 0 - - -;
#X obj 318 574 s LOOP1;
#X obj 532 560 *~ 1;
#X obj 492 560 *~ 1;
#X obj 570 525 tgl 15 0 empty empty rec_LOOP2 17 7 0 10 -262144 -1
-1 0 1;
#X obj 246 131 s stoptimer;
#X obj 613 123 r stoptimer;
#X obj 530 123 r starttimer;
#X obj 39 543 / 1000;
#X floatatom 39 570 10 0 0 0 - - -;
#X obj 85 172 s NsamplesLOOP1;
#X obj 476 265 mod;
#X obj 409 210 r NsamplesLOOP1;
#X obj 287 254 tgl 15 0 empty empty empty 17 7 0 10 -262144 -1 -1 0
1;
#X obj 287 279 sel 0 1;
#X obj 416 96 s starttimer;
#X obj 497 302 f;
#X obj 39 600 s samplerate_msec;
#X obj 589 253 *;
#X obj 616 225 r samplerate_msec;
#X floatatom 537 375 10 0 0 0 sample_point - -;
#X obj 220 363 adc~;
#X obj 242 466 tabwrite~ LOOP2;
#X msg 349 407 start \$1;
#X obj 558 280 +;
#X text 233 60 play LOOP1;
#X text 544 327 play LOOP! and keep track of the sampl_point to start
writing LOOP2 at that point;
#X obj 313 321 t b b;
#X connect 0 0 13 0;
#X connect 1 0 11 0;
#X connect 2 0 11 0;
#X connect 2 0 35 0;
#X connect 4 0 12 0;
#X connect 5 0 4 0;
#X connect 6 0 31 0;
#X connect 7 0 8 0;
#X connect 8 0 2 0;
#X connect 8 1 1 0;
#X connect 8 1 45 0;
#X connect 11 0 3 0;
#X connect 11 0 3 1;
#X connect 11 1 1 0;
#X connect 11 1 9 0;
#X connect 12 0 0 0;
#X connect 13 0 25 1;
#X connect 13 0 40 0;
#X connect 14 0 33 0;
#X connect 14 1 32 0;
#X connect 17 0 18 1;
#X connect 18 0 19 0;
#X connect 19 0 38 0;
#X connect 20 0 17 0;
#X connect 21 0 18 0;
#X connect 22 0 23 0;
#X connect 23 0 48 0;
#X connect 24 0 22 1;
#X connect 25 0 28 0;
#X connect 26 0 25 0;
#X connect 28 0 27 0;
#X connect 29 0 30 0;
#X connect 32 0 15 0;
#X connect 33 0 15 0;
#X connect 34 0 32 1;
#X connect 34 0 33 1;
#X connect 36 0 24 0;
#X connect 37 0 22 0;
#X connect 38 0 39 0;
#X connect 39 0 47 0;
#X connect 41 0 46 0;
#X connect 42 0 41 0;
#X connect 42 0 54 1;
#X connect 43 0 44 0;
#X connect 44 1 57 0;
#X connect 46 0 50 0;
#X connect 48 0 54 0;
#X connect 49 0 48 1;
#X connect 51 0 52 0;
#X connect 51 1 52 0;
#X connect 54 0 41 1;
